<?xml version="1.0" encoding="UTF-8"?>
<svg id="_레이어_1" data-name="레이어_1" xmlns="http://www.w3.org/2000/svg" version="1.1" viewBox="0 0 512 512">
  <!-- Generator: Adobe Illustrator 29.2.1, SVG Export Plug-In . SVG Version: 2.1.0 Build 116)  -->
  <defs>
    <style>
      .st0 {
        fill: #0090ff;
      }
    </style>
  </defs>
  <path d="M74.16,23"/>
  <path class="st0" d="M434.75,40.89l-67.59,14.21c-9.45,1.99-16.24,8.31-16.51,15.39l-7.54,201c0,.14-.03.28-.04.43L184.61,70.15c-4.54-5.78-13.68-8.36-22.43-6.33l-81.92,18.97c-7.12,1.65-12.21,6.66-12.49,12.28l-17.45,361.49c-.5,10.35,12.07,17.64,25.17,14.61l64.12-14.85c8.97-2.08,15.29-8.47,15.39-15.55l2.52-193.16,153.26,193.03c4.62,5.82,14.15,8.49,23.37,6.55l86.35-18.15c7.51-1.58,12.97-6.53,13.38-12.16l26.91-361.15c.77-10.34-12.24-17.76-26.05-14.85Z"/>
</svg>